<?xml version="1.0" encoding="UTF-8" standalone="no"?>
<!DOCTYPE svg PUBLIC "-//W3C//DTD SVG 1.1//EN" "http://www.w3.org/Graphics/SVG/1.1/DTD/svg11.dtd">
<svg width="100%" height="100%" viewBox="0 0 360 324" version="1.1" xmlns="http://www.w3.org/2000/svg" xmlns:xlink="http://www.w3.org/1999/xlink" xml:space="preserve" xmlns:serif="http://www.serif.com/" style="fill-rule:evenodd;clip-rule:evenodd;stroke-miterlimit:2;">
    <g id="shape0" transform="matrix(0.72,0,0,0.72,25.02,60.839999)">
        <ellipse cx="150" cy="180" rx="150" ry="180" style="fill:none;stroke:black;stroke-width:2px;"/>
    </g>
    <g id="shape1" transform="matrix(0.72,0,0,0.72,79.2,266.039999)">
        <circle cx="15" cy="15" r="15" style="fill:rgb(0,0,255);stroke:rgb(0,0,255);stroke-width:1px;"/>
    </g>
    <g id="shape2" transform="matrix(0.72,0,0,0.72,122.4,280.439999)">
        <circle cx="15" cy="15" r="15" style="fill:rgb(0,0,255);stroke:rgb(0,0,255);stroke-width:1px;"/>
    </g>
    <g id="shape3" transform="matrix(0.72,0,0,0.72,165.6,266.039999)">
        <circle cx="15" cy="15" r="15" style="fill:rgb(0,0,255);stroke:rgb(0,0,255);stroke-width:1px;"/>
    </g>
    <g id="shape4" transform="matrix(0.72,0,0,0.72,72,165.239999)">
        <circle cx="15" cy="15" r="15" style="fill:rgb(255,0,0);stroke:rgb(255,0,0);stroke-width:1px;"/>
    </g>
    <g id="shape5" transform="matrix(0.72,0,0,0.72,122.4,194.039999)">
        <circle cx="15" cy="15" r="15" style="fill:rgb(255,0,0);stroke:rgb(255,0,0);stroke-width:1px;"/>
    </g>
    <g id="shape6" transform="matrix(0.72,0,0,0.72,172.8,165.239999)">
        <circle cx="15" cy="15" r="15" style="fill:rgb(255,0,0);stroke:rgb(255,0,0);stroke-width:1px;"/>
    </g>
    <path d="M242.073,199.494L262.951,199.494" style="fill:none;stroke:rgb(0,0,255);stroke-width:4px;stroke-linecap:round;stroke-linejoin:round;stroke-miterlimit:1.5;"/>
    <path d="M90,276.84C153.347,260.515 206.212,198.271 242.073,199.494" style="fill:none;stroke:rgb(0,0,255);stroke-width:4px;stroke-linecap:round;stroke-linejoin:round;stroke-miterlimit:1.5;"/>
    <path d="M242.073,180.89L262.8,180.89" style="fill:none;stroke:rgb(255,0,0);stroke-width:4px;stroke-linecap:round;stroke-linejoin:round;stroke-miterlimit:1.5;"/>
    <g id="shape7" transform="matrix(0.72,0,0,0.72,262.8,172.439999)">
        <rect x="0" y="0" width="100" height="50" style="fill:rgb(211,211,211);fill-rule:nonzero;stroke:black;stroke-width:1px;"/>
    </g>
    <g transform="matrix(1,0,0,1,3.305741,8.973327)">
        <g transform="matrix(14,0,0,14,296.283543,157.642298)">
            <path d="M0.487,-0.469C0.5,-0.469 0.51,-0.466 0.515,-0.46C0.521,-0.454 0.523,-0.446 0.523,-0.435L0.523,-0.017C0.523,-0.013 0.522,-0.01 0.521,-0.008C0.519,-0.006 0.515,-0.004 0.511,-0.002C0.506,-0 0.5,0.001 0.492,0.002C0.484,0.003 0.474,0.003 0.462,0.003C0.45,0.003 0.44,0.003 0.432,0.002C0.424,0.001 0.418,-0 0.414,-0.002C0.409,-0.004 0.406,-0.006 0.404,-0.008C0.402,-0.01 0.401,-0.013 0.401,-0.017L0.401,-0.369L0.205,-0.369L0.205,-0.165C0.205,-0.141 0.209,-0.123 0.216,-0.111C0.224,-0.099 0.237,-0.093 0.256,-0.093C0.263,-0.093 0.269,-0.094 0.274,-0.095C0.279,-0.096 0.284,-0.097 0.288,-0.099C0.292,-0.1 0.295,-0.102 0.298,-0.103C0.301,-0.104 0.303,-0.104 0.306,-0.104C0.308,-0.104 0.309,-0.104 0.311,-0.103C0.313,-0.102 0.314,-0.099 0.315,-0.096C0.316,-0.093 0.317,-0.088 0.318,-0.082C0.319,-0.076 0.319,-0.069 0.319,-0.06C0.319,-0.045 0.319,-0.034 0.317,-0.027C0.315,-0.02 0.313,-0.014 0.31,-0.011C0.307,-0.008 0.303,-0.005 0.297,-0.002C0.291,0 0.284,0.002 0.277,0.004C0.269,0.006 0.261,0.007 0.252,0.008C0.243,0.009 0.234,0.01 0.225,0.01C0.2,0.01 0.179,0.007 0.161,0C0.143,-0.006 0.128,-0.015 0.117,-0.028C0.105,-0.041 0.096,-0.057 0.091,-0.077C0.085,-0.096 0.083,-0.119 0.083,-0.146L0.083,-0.369L0.03,-0.369C0.024,-0.369 0.019,-0.373 0.016,-0.381C0.013,-0.388 0.011,-0.401 0.011,-0.419C0.011,-0.428 0.012,-0.436 0.012,-0.443C0.013,-0.449 0.014,-0.455 0.016,-0.458C0.018,-0.462 0.02,-0.465 0.022,-0.466C0.025,-0.468 0.028,-0.469 0.031,-0.469L0.083,-0.469L0.083,-0.566C0.083,-0.569 0.083,-0.572 0.085,-0.575C0.087,-0.577 0.09,-0.58 0.095,-0.581C0.1,-0.583 0.106,-0.584 0.114,-0.585C0.122,-0.586 0.132,-0.586 0.144,-0.586C0.156,-0.586 0.166,-0.586 0.174,-0.585C0.182,-0.584 0.188,-0.583 0.192,-0.581C0.197,-0.58 0.2,-0.577 0.202,-0.575C0.204,-0.572 0.205,-0.569 0.205,-0.566L0.205,-0.469L0.487,-0.469ZM0.533,-0.6C0.533,-0.575 0.528,-0.558 0.518,-0.548C0.508,-0.539 0.489,-0.534 0.462,-0.534C0.434,-0.534 0.416,-0.539 0.406,-0.548C0.396,-0.557 0.392,-0.573 0.392,-0.597C0.392,-0.622 0.397,-0.639 0.406,-0.649C0.416,-0.658 0.435,-0.663 0.463,-0.663C0.49,-0.663 0.509,-0.658 0.519,-0.649C0.528,-0.64 0.533,-0.623 0.533,-0.6ZM0.339,-0.469" style="fill:rgb(255,0,0);fill-rule:nonzero;"/>
        </g>
        <g transform="matrix(14,0,0,14,296.283543,157.642298)">
        </g>
        <g transform="matrix(14,0,0,14,301.081041,157.642298)">
        </g>
        <g transform="matrix(14,0,0,14,322.383152,157.642298)">
        </g>
        <text x="268.147px" y="157.642px" style="font-family:'Calibri-Bold', 'Calibri', sans-serif;font-weight:700;font-size:14px;fill:rgb(255,0,0);">(P<tspan x="279.734px 287.26px 292.845px 304.48px 310.974px 318.022px " y="157.642px 157.642px 157.642px 157.642px 157.642px 157.642px ">osive)</tspan></text>
    </g>
    <g id="shape26" transform="matrix(1,0,0,1,120,14.355)">
        <rect x="0" y="0" width="120" height="31.14" style="fill:rgb(254,220,220);stroke:rgb(255,0,0);stroke-width:2px;stroke-linecap:square;stroke-miterlimit:4;"/>
    </g>
    <g id="shape28" transform="matrix(0.004865,0.279776,-0.279776,0.004865,183.398999,78.742722)">
        <g id="group0">
            <path id="shape281" serif:id="shape28" d="M31.242,104.451L31.232,104.421C29.812,103.421 28.412,102.331 27.032,101.151C25.602,99.931 24.202,98.621 22.842,97.221C22.302,96.661 21.742,96.071 21.172,95.441C20.612,94.821 20.092,94.221 19.602,93.641C13.252,88.021 8.422,82.611 5.142,77.301C1.812,71.911 0.082,66.611 0.002,61.281C-0.068,55.961 1.502,50.691 4.762,45.361C7.982,40.111 12.852,34.791 19.422,29.301C19.472,29.231 19.532,29.161 19.592,29.101C19.662,29.031 19.722,28.961 19.802,28.891C21.502,26.701 23.322,24.691 25.252,22.881C27.192,21.051 29.242,19.411 31.362,17.951C31.762,16.991 32.132,16.011 32.472,15.021C32.832,13.961 33.152,12.911 33.412,11.871C33.672,10.821 33.882,9.761 34.022,8.711C34.162,7.651 34.242,6.591 34.252,5.531C34.252,5.481 34.252,5.401 34.262,5.311L34.272,5.201C34.272,5.161 34.282,5.111 34.292,5.071C34.372,4.681 34.462,4.321 34.582,3.961C34.702,3.591 34.842,3.261 34.992,2.971L35.022,2.921C35.202,2.591 35.402,2.291 35.622,2.021C35.862,1.731 36.122,1.471 36.402,1.251C36.702,1.021 37.022,0.821 37.362,0.661C37.692,0.501 38.042,0.381 38.432,0.281C38.742,0.201 39.082,0.141 39.422,0.091C39.762,0.051 40.122,0.021 40.482,0.011C41.172,-0.009 41.862,-0.009 42.532,0.071C43.242,0.161 43.932,0.331 44.602,0.651C45.362,1.011 46.032,1.531 46.562,2.251C47.082,2.951 47.462,3.841 47.672,4.971C47.692,5.071 47.702,5.161 47.702,5.241L47.712,5.471L47.432,10.661C47.852,10.551 48.262,10.451 48.682,10.351C49.482,10.161 50.312,9.991 51.162,9.821C56.012,8.911 60.952,8.651 65.832,9.021C70.782,9.391 75.672,10.411 80.312,12.011C85.002,13.631 89.442,15.861 93.452,18.641C97.362,21.351 100.852,24.591 103.782,28.301C107.112,32.521 109.702,37.361 111.332,42.761C112.852,47.801 113.532,53.331 113.162,59.291C113.262,60.961 113.422,62.501 113.632,63.901C113.842,65.291 114.102,66.511 114.442,67.531C114.712,68.351 115.012,69.021 115.332,69.481C115.592,69.851 115.862,70.081 116.132,70.161L116.382,70.251C116.712,70.371 117.032,70.511 117.342,70.671C117.672,70.831 117.992,71.021 118.292,71.221C118.602,71.421 118.902,71.651 119.192,71.901C119.482,72.141 119.762,72.421 120.042,72.731C121.352,74.171 122.012,75.361 122.342,76.601C122.662,77.811 122.662,78.991 122.652,80.481L122.652,80.531C122.652,80.601 122.642,80.671 122.632,80.741C122.652,80.891 122.662,81.051 122.662,81.241L122.662,91.651C122.692,92.001 122.682,92.351 122.652,92.701C122.622,93.071 122.552,93.421 122.452,93.751C122.342,94.111 122.202,94.451 122.042,94.771C121.872,95.091 121.672,95.391 121.452,95.661C121.402,95.721 121.362,95.781 121.312,95.831C120.562,96.671 119.742,97.181 118.892,97.431C118.032,97.691 117.152,97.681 116.282,97.501C115.572,97.361 114.922,97.111 114.302,96.821C113.692,96.531 113.142,96.211 112.602,95.891C111.322,95.141 110.332,94.381 109.472,93.721C108.482,92.961 107.762,92.411 106.932,92.551C105.922,92.721 104.512,93.701 102.082,96.061C101.462,96.661 100.812,97.271 100.142,97.881C99.462,98.501 98.802,99.071 98.172,99.601C92.532,104.321 86.392,107.941 80.002,110.371C73.592,112.801 66.942,114.031 60.302,113.961C57.912,113.931 55.542,113.741 53.202,113.391C51.282,113.101 49.362,112.691 47.472,112.161L47.732,117.401L47.732,117.661C47.722,117.731 47.712,117.811 47.702,117.901C47.492,119.031 47.112,119.921 46.592,120.621C46.062,121.341 45.392,121.861 44.632,122.221C43.962,122.541 43.272,122.721 42.562,122.801C41.902,122.881 41.212,122.891 40.512,122.861C40.142,122.851 39.792,122.821 39.452,122.781C39.102,122.741 38.762,122.671 38.452,122.591L38.412,122.581C38.042,122.481 37.702,122.361 37.382,122.211C37.032,122.051 36.712,121.851 36.422,121.621C36.142,121.401 35.882,121.141 35.642,120.851C35.412,120.571 35.202,120.251 35.022,119.901C34.872,119.611 34.732,119.281 34.612,118.911C34.492,118.551 34.392,118.181 34.322,117.791L34.292,117.571C34.282,117.481 34.282,117.401 34.282,117.351C34.282,116.291 34.192,115.211 34.052,114.131C33.902,113.051 33.692,111.961 33.432,110.881C33.162,109.791 32.842,108.711 32.482,107.641C32.082,106.541 31.672,105.491 31.242,104.451ZM37.552,108.261C37.692,108.741 37.822,109.241 37.942,109.741C38.242,110.951 38.482,112.171 38.652,113.411C38.812,114.611 38.912,115.821 38.932,117.051C38.962,117.181 39.002,117.311 39.042,117.431C39.082,117.551 39.122,117.651 39.162,117.731L39.182,117.761C39.202,117.801 39.222,117.831 39.242,117.861C39.262,117.881 39.282,117.901 39.302,117.921C39.332,117.951 39.372,117.971 39.402,117.981C39.462,118.011 39.522,118.031 39.602,118.051C39.722,118.081 39.872,118.111 40.042,118.131C40.242,118.151 40.432,118.171 40.632,118.171C41.052,118.181 41.462,118.191 41.822,118.151C42.122,118.121 42.392,118.071 42.582,117.981C42.662,117.941 42.732,117.881 42.802,117.781C42.882,117.661 42.962,117.491 43.012,117.271L42.682,110.561C41.572,110.131 40.462,109.661 39.372,109.151C38.752,108.871 38.152,108.571 37.552,108.261ZM108.472,59.101C108.812,53.721 108.212,48.731 106.852,44.181C105.402,39.341 103.072,34.991 100.092,31.211C97.442,27.851 94.282,24.921 90.742,22.471C87.092,19.941 83.052,17.911 78.782,16.441C74.532,14.971 70.042,14.041 65.482,13.701C61.002,13.361 56.462,13.591 52.022,14.431C48.632,15.071 45.302,16.061 42.092,17.421C39.162,18.661 36.332,20.211 33.642,22.101C34.292,26.801 33.662,29.921 32.372,32.231C31.032,34.641 29.042,36.091 27.062,37.521L27.022,37.551C26.292,38.081 25.572,38.611 24.932,39.171L24.932,42.021C25.262,41.881 25.592,41.751 25.932,41.651C26.742,41.401 27.582,41.271 28.442,41.271C30.312,41.271 32.062,41.881 33.642,42.981C35.232,44.091 36.642,45.711 37.802,47.701C38.862,49.531 39.712,51.711 40.292,54.121C40.852,56.431 41.152,58.951 41.152,61.571C41.152,64.191 40.842,66.711 40.292,69.021C39.712,71.431 38.862,73.611 37.802,75.441C36.652,77.441 35.242,79.051 33.642,80.161C32.062,81.261 30.302,81.871 28.442,81.871C27.592,81.871 26.752,81.741 25.932,81.491C25.592,81.391 25.262,81.261 24.932,81.121L24.932,83.711C25.612,84.291 26.362,84.811 27.122,85.321L27.162,85.351C29.122,86.681 31.062,88.011 32.362,90.321C33.612,92.541 34.202,95.601 33.522,100.311C37.542,103.201 41.772,105.371 46.112,106.851C50.762,108.431 55.532,109.231 60.312,109.281C66.372,109.341 72.472,108.211 78.362,105.971C84.242,103.731 89.922,100.381 95.132,96.011C95.792,95.461 96.412,94.921 96.992,94.401C97.582,93.871 98.172,93.311 98.782,92.721C102.422,89.181 104.742,87.751 106.702,87.561C108.792,87.361 110.242,88.461 112.232,89.981C112.272,90.001 112.302,90.031 112.332,90.051C113.072,90.621 113.922,91.271 114.962,91.871C115.362,92.101 115.772,92.351 116.182,92.551L116.222,92.571C116.572,92.741 116.892,92.871 117.172,92.931C117.342,92.961 117.512,92.931 117.642,92.851C117.782,92.771 117.892,92.631 117.942,92.461L117.982,91.941C117.962,91.871 117.952,91.791 117.952,91.721L117.952,87.161C116.712,86.661 115.482,86.121 114.262,85.561C112.862,84.911 111.442,84.211 110.012,83.441C108.552,82.661 107.092,81.821 105.622,80.911C104.252,80.061 102.882,79.161 101.522,78.201L89.652,79.791C89.062,80.321 88.672,80.941 88.382,81.621C88.052,82.411 87.832,83.331 87.612,84.281C87.352,85.391 87.082,86.541 86.632,87.741C86.202,88.881 85.602,90.041 84.712,91.201C84.712,92.111 84.672,92.961 84.602,93.781C84.512,94.701 84.372,95.561 84.162,96.381C83.912,97.371 83.562,98.281 83.112,99.121C82.652,99.971 82.082,100.761 81.382,101.491L81.322,101.551C80.882,101.981 80.312,102.201 79.742,102.221C79.142,102.231 78.542,102.021 78.072,101.581L78.012,101.521C77.582,101.081 77.362,100.511 77.342,99.941C77.332,99.341 77.542,98.741 77.982,98.271C78.392,97.841 78.722,97.381 78.992,96.881L79.012,96.841C79.272,96.351 79.472,95.811 79.622,95.241C79.732,94.801 79.822,94.331 79.882,93.831L79.932,93.391L79.642,93.461C79.012,93.621 78.382,93.521 77.872,93.211C77.352,92.911 76.952,92.401 76.792,91.781C76.632,91.151 76.732,90.521 77.042,90.011C77.342,89.491 77.852,89.091 78.472,88.931L81.082,88.261C81.632,87.511 82.012,86.721 82.302,85.931C82.622,85.051 82.842,84.131 83.042,83.241C83.322,82.041 83.592,80.871 84.062,79.741C84.462,78.771 85.012,77.851 85.812,76.991C85.602,76.671 85.352,76.331 85.172,75.991C84.162,74.421 83.142,72.861 81.862,71.321C80.612,69.821 79.132,68.351 77.172,66.971C75.712,66.831 74.322,66.731 72.982,66.691C71.582,66.651 70.222,66.661 68.892,66.721C67.582,66.791 66.292,66.911 65.012,67.081C63.732,67.261 62.472,67.491 61.192,67.771C60.562,67.911 59.932,67.781 59.432,67.471C58.922,67.151 58.542,66.631 58.402,66.001C58.262,65.371 58.392,64.741 58.712,64.241C59.032,63.731 59.552,63.351 60.182,63.211C61.592,62.891 62.992,62.641 64.402,62.441C65.812,62.251 67.232,62.111 68.692,62.041C69.582,62.001 70.452,61.971 71.302,61.971L71.622,61.971C69.092,59.681 66.742,57.781 64.372,57.201C63.742,57.051 63.232,56.651 62.922,56.141L62.882,56.061C62.602,55.561 62.512,54.961 62.652,54.371C62.802,53.741 63.202,53.241 63.712,52.931C64.222,52.621 64.862,52.501 65.482,52.661C69.522,53.661 72.782,56.661 76.412,60.021L76.452,60.061C77.102,60.661 77.772,61.281 78.162,61.631C78.742,62.151 79.302,62.661 79.842,63.111C82.182,64.761 83.942,66.481 85.402,68.241C86.842,69.971 87.982,71.731 89.122,73.481C89.482,73.951 89.812,74.531 90.142,75.031L99.842,73.731C99.822,73.201 99.772,72.651 99.702,72.091C99.602,71.251 99.462,70.401 99.262,69.551C99.032,68.531 98.732,67.471 98.362,66.371C98.022,65.361 97.622,64.331 97.162,63.281C96.102,62.751 95.092,62.131 94.142,61.401C93.102,60.601 92.142,59.661 91.272,58.571C90.422,57.501 89.652,56.271 88.992,54.881C88.392,53.611 87.892,52.201 87.482,50.641C87.152,50.491 86.812,50.351 86.472,50.211C86.022,50.031 85.622,49.891 85.262,49.781C84.852,49.661 84.452,49.571 84.072,49.521C83.692,49.471 83.332,49.441 82.992,49.451L82.982,49.451C82.342,49.471 81.752,49.221 81.322,48.821C80.882,48.411 80.602,47.831 80.582,47.191C80.562,46.541 80.802,45.951 81.212,45.511C81.622,45.071 82.202,44.791 82.842,44.771C83.462,44.751 84.072,44.781 84.692,44.871C85.122,44.931 85.552,45.021 86.002,45.131L85.962,44.921C85.812,44.111 85.702,43.331 85.612,42.591C85.522,41.841 85.472,41.111 85.432,40.411C85.392,39.771 85.632,39.171 86.032,38.721C86.432,38.271 87.002,37.981 87.652,37.941C88.292,37.901 88.892,38.141 89.342,38.541C89.792,38.941 90.082,39.511 90.122,40.161C90.152,40.771 90.212,41.411 90.282,42.081C90.362,42.751 90.452,43.421 90.582,44.091C90.712,44.781 90.862,45.481 91.052,46.171C91.222,46.791 91.422,47.421 91.672,48.061C91.702,48.121 91.722,48.191 91.742,48.261C91.772,48.341 91.792,48.421 91.812,48.501C92.152,50.061 92.592,51.421 93.122,52.611C93.642,53.781 94.262,54.801 94.962,55.671C95.382,56.201 95.842,56.681 96.332,57.121L96.652,57.401L96.722,56.911C96.832,56.231 96.972,55.571 97.152,54.951C97.432,53.951 97.802,53.011 98.262,52.121C98.722,51.231 99.262,50.401 99.902,49.631C100.312,49.131 100.892,48.851 101.482,48.791C102.072,48.731 102.692,48.901 103.192,49.311L103.262,49.371C103.712,49.771 103.972,50.321 104.032,50.891C104.092,51.481 103.922,52.101 103.512,52.601C103.092,53.121 102.722,53.671 102.422,54.271C102.112,54.871 101.862,55.521 101.662,56.221C101.472,56.911 101.332,57.641 101.252,58.411C101.172,59.141 101.152,59.911 101.172,60.721C101.772,62.041 102.302,63.351 102.752,64.651C103.212,65.981 103.582,67.291 103.872,68.571C104.132,69.721 104.312,70.831 104.432,71.921C104.532,72.851 104.582,73.761 104.582,74.661C105.812,75.521 107.032,76.321 108.232,77.061C109.572,77.891 110.912,78.661 112.252,79.371C113.392,79.981 114.552,80.561 115.732,81.121C116.492,81.481 117.242,81.821 117.992,82.141L117.992,81.311C117.992,81.101 117.992,81.041 118.002,80.951L118.012,80.561L118.012,80.481C118.022,78.601 118.012,77.481 116.632,75.971C116.492,75.821 116.352,75.681 116.202,75.561C116.062,75.441 115.912,75.331 115.732,75.211C115.582,75.111 115.432,75.021 115.282,74.941C115.142,74.871 114.992,74.801 114.842,74.741C113.672,74.401 112.702,73.711 111.892,72.721C111.112,71.771 110.492,70.531 110.012,69.061C109.602,67.811 109.282,66.351 109.032,64.741C108.792,63.161 108.622,61.401 108.502,59.501L108.502,59.361L108.472,59.101ZM29.182,25.641C28.572,26.201 27.962,26.771 27.362,27.371C26.462,28.281 25.582,29.231 24.742,30.231C24.962,31.051 24.982,32.201 24.972,33.231C26.102,32.391 27.172,31.501 27.942,30.291C28.662,29.151 29.132,27.691 29.182,25.641ZM18.782,36.101C14.192,40.341 10.732,44.421 8.402,48.421C5.852,52.771 4.632,57.011 4.692,61.231C4.752,65.441 6.092,69.711 8.672,74.101C11.022,78.111 14.402,82.221 18.792,86.501L18.792,76.401C18.622,75.831 18.462,75.251 18.302,74.671C18.132,74.051 17.982,73.441 17.842,72.851C17.172,71.231 16.642,69.431 16.282,67.501C15.932,65.611 15.742,63.621 15.742,61.561C15.742,59.571 15.922,57.631 16.252,55.801C16.592,53.921 17.092,52.161 17.722,50.561C17.882,49.961 18.042,49.361 18.232,48.761C18.412,48.161 18.602,47.591 18.792,47.041L18.792,36.101L18.782,36.101ZM24.692,92.351L25.242,92.951C25.562,93.301 25.882,93.631 26.192,93.951C26.882,94.661 27.582,95.341 28.292,96.001C28.552,96.251 28.822,96.491 29.092,96.731C29.062,94.741 28.632,93.351 27.952,92.301C27.202,91.111 26.112,90.291 24.972,89.511C24.992,90.481 24.962,91.551 24.692,92.351ZM37.612,14.311C38.202,14.021 38.792,13.751 39.382,13.481C40.462,13.001 41.552,12.551 42.652,12.151L43.002,5.571C42.942,5.351 42.872,5.181 42.792,5.061C42.722,4.971 42.652,4.901 42.572,4.871C42.382,4.781 42.122,4.731 41.812,4.701C41.452,4.671 41.042,4.671 40.622,4.681C40.422,4.691 40.232,4.701 40.032,4.721C39.862,4.741 39.712,4.771 39.592,4.801L39.562,4.811C39.502,4.831 39.442,4.851 39.392,4.871C39.352,4.891 39.322,4.911 39.292,4.931C39.272,4.951 39.252,4.971 39.242,4.991C39.212,5.031 39.182,5.071 39.162,5.121C39.122,5.201 39.082,5.311 39.042,5.431C39.002,5.551 38.972,5.681 38.932,5.811C38.912,7.031 38.822,8.231 38.662,9.411C38.492,10.631 38.262,11.821 37.962,13.001C37.852,13.441 37.732,13.881 37.612,14.311ZM24.942,47.651C24.932,47.831 24.912,48.021 24.872,48.201C24.822,48.411 24.762,48.621 24.672,48.811C23.842,51.121 23.272,53.401 22.932,55.641C22.582,57.901 22.462,60.091 22.522,62.241C22.582,64.451 22.842,66.621 23.232,68.761C23.632,70.911 24.162,73.021 24.802,75.101C24.832,75.191 24.852,75.301 24.882,75.421C25.422,75.971 25.992,76.401 26.582,76.701C27.182,77.011 27.812,77.171 28.452,77.171C29.382,77.171 30.302,76.821 31.162,76.181C32.112,75.471 33.002,74.411 33.762,73.091C34.612,71.621 35.302,69.851 35.772,67.861C36.232,65.931 36.482,63.811 36.482,61.571C36.482,59.331 36.232,57.211 35.772,55.281C35.302,53.291 34.612,51.521 33.762,50.051C33.002,48.731 32.112,47.671 31.162,46.961L31.122,46.931C30.272,46.311 29.382,45.971 28.462,45.971C27.822,45.971 27.202,46.131 26.602,46.441C26.012,46.711 25.462,47.121 24.942,47.651Z" style="fill-rule:nonzero;"/>
        </g>
    </g>
    <g id="group01" transform="matrix(-0.004865,0.279776,0.279776,0.004865,80.876398,78.275385)">
        <g id="shape02" transform="matrix(1,0,0,1,1.729489,-3.398277)">
            <path d="M31.242,104.451L31.232,104.421C29.812,103.421 28.412,102.331 27.032,101.151C25.602,99.931 24.202,98.621 22.842,97.221C22.302,96.661 21.742,96.071 21.172,95.441C20.612,94.821 20.092,94.221 19.602,93.641C13.252,88.021 8.422,82.611 5.142,77.301C1.812,71.911 0.082,66.611 0.002,61.281C-0.068,55.961 1.502,50.691 4.762,45.361C7.982,40.111 12.852,34.791 19.422,29.301C19.472,29.231 19.532,29.161 19.592,29.101C19.662,29.031 19.722,28.961 19.802,28.891C21.502,26.701 23.322,24.691 25.252,22.881C27.192,21.051 29.242,19.411 31.362,17.951C31.762,16.991 32.132,16.011 32.472,15.021C32.832,13.961 33.152,12.911 33.412,11.871C33.672,10.821 33.882,9.761 34.022,8.711C34.162,7.651 34.242,6.591 34.252,5.531C34.252,5.481 34.252,5.401 34.262,5.311L34.272,5.201C34.272,5.161 34.282,5.111 34.292,5.071C34.372,4.681 34.462,4.321 34.582,3.961C34.702,3.591 34.842,3.261 34.992,2.971L35.022,2.921C35.202,2.591 35.402,2.291 35.622,2.021C35.862,1.731 36.122,1.471 36.402,1.251C36.702,1.021 37.022,0.821 37.362,0.661C37.692,0.501 38.042,0.381 38.432,0.281C38.742,0.201 39.082,0.141 39.422,0.091C39.762,0.051 40.122,0.021 40.482,0.011C41.172,-0.009 41.862,-0.009 42.532,0.071C43.242,0.161 43.932,0.331 44.602,0.651C45.362,1.011 46.032,1.531 46.562,2.251C47.082,2.951 47.462,3.841 47.672,4.971C47.692,5.071 47.702,5.161 47.702,5.241L47.712,5.471L47.432,10.661C47.852,10.551 48.262,10.451 48.682,10.351C49.482,10.161 50.312,9.991 51.162,9.821C56.012,8.911 60.952,8.651 65.832,9.021C70.782,9.391 75.672,10.411 80.312,12.011C85.002,13.631 89.442,15.861 93.452,18.641C97.362,21.351 100.852,24.591 103.782,28.301C107.112,32.521 109.702,37.361 111.332,42.761C112.852,47.801 113.532,53.331 113.162,59.291C113.262,60.961 113.422,62.501 113.632,63.901C113.842,65.291 114.102,66.511 114.442,67.531C114.712,68.351 115.012,69.021 115.332,69.481C115.592,69.851 115.862,70.081 116.132,70.161L116.382,70.251C116.712,70.371 117.032,70.511 117.342,70.671C117.672,70.831 117.992,71.021 118.292,71.221C118.602,71.421 118.902,71.651 119.192,71.901C119.482,72.141 119.762,72.421 120.042,72.731C121.352,74.171 122.012,75.361 122.342,76.601C122.662,77.811 122.662,78.991 122.652,80.481L122.652,80.531C122.652,80.601 122.642,80.671 122.632,80.741C122.652,80.891 122.662,81.051 122.662,81.241L122.662,91.651C122.692,92.001 122.682,92.351 122.652,92.701C122.622,93.071 122.552,93.421 122.452,93.751C122.342,94.111 122.202,94.451 122.042,94.771C121.872,95.091 121.672,95.391 121.452,95.661C121.402,95.721 121.362,95.781 121.312,95.831C120.562,96.671 119.742,97.181 118.892,97.431C118.032,97.691 117.152,97.681 116.282,97.501C115.572,97.361 114.922,97.111 114.302,96.821C113.692,96.531 113.142,96.211 112.602,95.891C111.322,95.141 110.332,94.381 109.472,93.721C108.482,92.961 107.762,92.411 106.932,92.551C105.922,92.721 104.512,93.701 102.082,96.061C101.462,96.661 100.812,97.271 100.142,97.881C99.462,98.501 98.802,99.071 98.172,99.601C92.532,104.321 86.392,107.941 80.002,110.371C73.592,112.801 66.942,114.031 60.302,113.961C57.912,113.931 55.542,113.741 53.202,113.391C51.282,113.101 49.362,112.691 47.472,112.161L47.732,117.401L47.732,117.661C47.722,117.731 47.712,117.811 47.702,117.901C47.492,119.031 47.112,119.921 46.592,120.621C46.062,121.341 45.392,121.861 44.632,122.221C43.962,122.541 43.272,122.721 42.562,122.801C41.902,122.881 41.212,122.891 40.512,122.861C40.142,122.851 39.792,122.821 39.452,122.781C39.102,122.741 38.762,122.671 38.452,122.591L38.412,122.581C38.042,122.481 37.702,122.361 37.382,122.211C37.032,122.051 36.712,121.851 36.422,121.621C36.142,121.401 35.882,121.141 35.642,120.851C35.412,120.571 35.202,120.251 35.022,119.901C34.872,119.611 34.732,119.281 34.612,118.911C34.492,118.551 34.392,118.181 34.322,117.791L34.292,117.571C34.282,117.481 34.282,117.401 34.282,117.351C34.282,116.291 34.192,115.211 34.052,114.131C33.902,113.051 33.692,111.961 33.432,110.881C33.162,109.791 32.842,108.711 32.482,107.641C32.082,106.541 31.672,105.491 31.242,104.451ZM37.552,108.261C37.692,108.741 37.822,109.241 37.942,109.741C38.242,110.951 38.482,112.171 38.652,113.411C38.812,114.611 38.912,115.821 38.932,117.051C38.962,117.181 39.002,117.311 39.042,117.431C39.082,117.551 39.122,117.651 39.162,117.731L39.182,117.761C39.202,117.801 39.222,117.831 39.242,117.861C39.262,117.881 39.282,117.901 39.302,117.921C39.332,117.951 39.372,117.971 39.402,117.981C39.462,118.011 39.522,118.031 39.602,118.051C39.722,118.081 39.872,118.111 40.042,118.131C40.242,118.151 40.432,118.171 40.632,118.171C41.052,118.181 41.462,118.191 41.822,118.151C42.122,118.121 42.392,118.071 42.582,117.981C42.662,117.941 42.732,117.881 42.802,117.781C42.882,117.661 42.962,117.491 43.012,117.271L42.682,110.561C41.572,110.131 40.462,109.661 39.372,109.151C38.752,108.871 38.152,108.571 37.552,108.261ZM108.472,59.101C108.812,53.721 108.212,48.731 106.852,44.181C105.402,39.341 103.072,34.991 100.092,31.211C97.442,27.851 94.282,24.921 90.742,22.471C87.092,19.941 83.052,17.911 78.782,16.441C74.532,14.971 70.042,14.041 65.482,13.701C61.002,13.361 56.462,13.591 52.022,14.431C48.632,15.071 45.302,16.061 42.092,17.421C39.162,18.661 36.332,20.211 33.642,22.101C34.292,26.801 33.662,29.921 32.372,32.231C31.032,34.641 29.042,36.091 27.062,37.521L27.022,37.551C26.292,38.081 25.572,38.611 24.932,39.171L24.932,42.021C25.262,41.881 25.592,41.751 25.932,41.651C26.742,41.401 27.582,41.271 28.442,41.271C30.312,41.271 32.062,41.881 33.642,42.981C35.232,44.091 36.642,45.711 37.802,47.701C38.862,49.531 39.712,51.711 40.292,54.121C40.852,56.431 41.152,58.951 41.152,61.571C41.152,64.191 40.842,66.711 40.292,69.021C39.712,71.431 38.862,73.611 37.802,75.441C36.652,77.441 35.242,79.051 33.642,80.161C32.062,81.261 30.302,81.871 28.442,81.871C27.592,81.871 26.752,81.741 25.932,81.491C25.592,81.391 25.262,81.261 24.932,81.121L24.932,83.711C25.612,84.291 26.362,84.811 27.122,85.321L27.162,85.351C29.122,86.681 31.062,88.011 32.362,90.321C33.612,92.541 34.202,95.601 33.522,100.311C37.542,103.201 41.772,105.371 46.112,106.851C50.762,108.431 55.532,109.231 60.312,109.281C66.372,109.341 72.472,108.211 78.362,105.971C84.242,103.731 89.922,100.381 95.132,96.011C95.792,95.461 96.412,94.921 96.992,94.401C97.582,93.871 98.172,93.311 98.782,92.721C102.422,89.181 104.742,87.751 106.702,87.561C108.792,87.361 110.242,88.461 112.232,89.981C112.272,90.001 112.302,90.031 112.332,90.051C113.072,90.621 113.922,91.271 114.962,91.871C115.362,92.101 115.772,92.351 116.182,92.551L116.222,92.571C116.572,92.741 116.892,92.871 117.172,92.931C117.342,92.961 117.512,92.931 117.642,92.851C117.782,92.771 117.892,92.631 117.942,92.461L117.982,91.941C117.962,91.871 117.952,91.791 117.952,91.721L117.952,87.161C116.712,86.661 115.482,86.121 114.262,85.561C112.862,84.911 111.442,84.211 110.012,83.441C108.552,82.661 107.092,81.821 105.622,80.911C104.252,80.061 102.882,79.161 101.522,78.201L89.652,79.791C89.062,80.321 88.672,80.941 88.382,81.621C88.052,82.411 87.832,83.331 87.612,84.281C87.352,85.391 87.082,86.541 86.632,87.741C86.202,88.881 85.602,90.041 84.712,91.201C84.712,92.111 84.672,92.961 84.602,93.781C84.512,94.701 84.372,95.561 84.162,96.381C83.912,97.371 83.562,98.281 83.112,99.121C82.652,99.971 82.082,100.761 81.382,101.491L81.322,101.551C80.882,101.981 80.312,102.201 79.742,102.221C79.142,102.231 78.542,102.021 78.072,101.581L78.012,101.521C77.582,101.081 77.362,100.511 77.342,99.941C77.332,99.341 77.542,98.741 77.982,98.271C78.392,97.841 78.722,97.381 78.992,96.881L79.012,96.841C79.272,96.351 79.472,95.811 79.622,95.241C79.732,94.801 79.822,94.331 79.882,93.831L79.932,93.391L79.642,93.461C79.012,93.621 78.382,93.521 77.872,93.211C77.352,92.911 76.952,92.401 76.792,91.781C76.632,91.151 76.732,90.521 77.042,90.011C77.342,89.491 77.852,89.091 78.472,88.931L81.082,88.261C81.632,87.511 82.012,86.721 82.302,85.931C82.622,85.051 82.842,84.131 83.042,83.241C83.322,82.041 83.592,80.871 84.062,79.741C84.462,78.771 85.012,77.851 85.812,76.991C85.602,76.671 85.352,76.331 85.172,75.991C84.162,74.421 83.142,72.861 81.862,71.321C80.612,69.821 79.132,68.351 77.172,66.971C75.712,66.831 74.322,66.731 72.982,66.691C71.582,66.651 70.222,66.661 68.892,66.721C67.582,66.791 66.292,66.911 65.012,67.081C63.732,67.261 62.472,67.491 61.192,67.771C60.562,67.911 59.932,67.781 59.432,67.471C58.922,67.151 58.542,66.631 58.402,66.001C58.262,65.371 58.392,64.741 58.712,64.241C59.032,63.731 59.552,63.351 60.182,63.211C61.592,62.891 62.992,62.641 64.402,62.441C65.812,62.251 67.232,62.111 68.692,62.041C69.582,62.001 70.452,61.971 71.302,61.971L71.622,61.971C69.092,59.681 66.742,57.781 64.372,57.201C63.742,57.051 63.232,56.651 62.922,56.141L62.882,56.061C62.602,55.561 62.512,54.961 62.652,54.371C62.802,53.741 63.202,53.241 63.712,52.931C64.222,52.621 64.862,52.501 65.482,52.661C69.522,53.661 72.782,56.661 76.412,60.021L76.452,60.061C77.102,60.661 77.772,61.281 78.162,61.631C78.742,62.151 79.302,62.661 79.842,63.111C82.182,64.761 83.942,66.481 85.402,68.241C86.842,69.971 87.982,71.731 89.122,73.481C89.482,73.951 89.812,74.531 90.142,75.031L99.842,73.731C99.822,73.201 99.772,72.651 99.702,72.091C99.602,71.251 99.462,70.401 99.262,69.551C99.032,68.531 98.732,67.471 98.362,66.371C98.022,65.361 97.622,64.331 97.162,63.281C96.102,62.751 95.092,62.131 94.142,61.401C93.102,60.601 92.142,59.661 91.272,58.571C90.422,57.501 89.652,56.271 88.992,54.881C88.392,53.611 87.892,52.201 87.482,50.641C87.152,50.491 86.812,50.351 86.472,50.211C86.022,50.031 85.622,49.891 85.262,49.781C84.852,49.661 84.452,49.571 84.072,49.521C83.692,49.471 83.332,49.441 82.992,49.451L82.982,49.451C82.342,49.471 81.752,49.221 81.322,48.821C80.882,48.411 80.602,47.831 80.582,47.191C80.562,46.541 80.802,45.951 81.212,45.511C81.622,45.071 82.202,44.791 82.842,44.771C83.462,44.751 84.072,44.781 84.692,44.871C85.122,44.931 85.552,45.021 86.002,45.131L85.962,44.921C85.812,44.111 85.702,43.331 85.612,42.591C85.522,41.841 85.472,41.111 85.432,40.411C85.392,39.771 85.632,39.171 86.032,38.721C86.432,38.271 87.002,37.981 87.652,37.941C88.292,37.901 88.892,38.141 89.342,38.541C89.792,38.941 90.082,39.511 90.122,40.161C90.152,40.771 90.212,41.411 90.282,42.081C90.362,42.751 90.452,43.421 90.582,44.091C90.712,44.781 90.862,45.481 91.052,46.171C91.222,46.791 91.422,47.421 91.672,48.061C91.702,48.121 91.722,48.191 91.742,48.261C91.772,48.341 91.792,48.421 91.812,48.501C92.152,50.061 92.592,51.421 93.122,52.611C93.642,53.781 94.262,54.801 94.962,55.671C95.382,56.201 95.842,56.681 96.332,57.121L96.652,57.401L96.722,56.911C96.832,56.231 96.972,55.571 97.152,54.951C97.432,53.951 97.802,53.011 98.262,52.121C98.722,51.231 99.262,50.401 99.902,49.631C100.312,49.131 100.892,48.851 101.482,48.791C102.072,48.731 102.692,48.901 103.192,49.311L103.262,49.371C103.712,49.771 103.972,50.321 104.032,50.891C104.092,51.481 103.922,52.101 103.512,52.601C103.092,53.121 102.722,53.671 102.422,54.271C102.112,54.871 101.862,55.521 101.662,56.221C101.472,56.911 101.332,57.641 101.252,58.411C101.172,59.141 101.152,59.911 101.172,60.721C101.772,62.041 102.302,63.351 102.752,64.651C103.212,65.981 103.582,67.291 103.872,68.571C104.132,69.721 104.312,70.831 104.432,71.921C104.532,72.851 104.582,73.761 104.582,74.661C105.812,75.521 107.032,76.321 108.232,77.061C109.572,77.891 110.912,78.661 112.252,79.371C113.392,79.981 114.552,80.561 115.732,81.121C116.492,81.481 117.242,81.821 117.992,82.141L117.992,81.311C117.992,81.101 117.992,81.041 118.002,80.951L118.012,80.561L118.012,80.481C118.022,78.601 118.012,77.481 116.632,75.971C116.492,75.821 116.352,75.681 116.202,75.561C116.062,75.441 115.912,75.331 115.732,75.211C115.582,75.111 115.432,75.021 115.282,74.941C115.142,74.871 114.992,74.801 114.842,74.741C113.672,74.401 112.702,73.711 111.892,72.721C111.112,71.771 110.492,70.531 110.012,69.061C109.602,67.811 109.282,66.351 109.032,64.741C108.792,63.161 108.622,61.401 108.502,59.501L108.502,59.361L108.472,59.101ZM29.182,25.641C28.572,26.201 27.962,26.771 27.362,27.371C26.462,28.281 25.582,29.231 24.742,30.231C24.962,31.051 24.982,32.201 24.972,33.231C26.102,32.391 27.172,31.501 27.942,30.291C28.662,29.151 29.132,27.691 29.182,25.641ZM18.782,36.101C14.192,40.341 10.732,44.421 8.402,48.421C5.852,52.771 4.632,57.011 4.692,61.231C4.752,65.441 6.092,69.711 8.672,74.101C11.022,78.111 14.402,82.221 18.792,86.501L18.792,76.401C18.622,75.831 18.462,75.251 18.302,74.671C18.132,74.051 17.982,73.441 17.842,72.851C17.172,71.231 16.642,69.431 16.282,67.501C15.932,65.611 15.742,63.621 15.742,61.561C15.742,59.571 15.922,57.631 16.252,55.801C16.592,53.921 17.092,52.161 17.722,50.561C17.882,49.961 18.042,49.361 18.232,48.761C18.412,48.161 18.602,47.591 18.792,47.041L18.792,36.101L18.782,36.101ZM24.692,92.351L25.242,92.951C25.562,93.301 25.882,93.631 26.192,93.951C26.882,94.661 27.582,95.341 28.292,96.001C28.552,96.251 28.822,96.491 29.092,96.731C29.062,94.741 28.632,93.351 27.952,92.301C27.202,91.111 26.112,90.291 24.972,89.511C24.992,90.481 24.962,91.551 24.692,92.351ZM37.612,14.311C38.202,14.021 38.792,13.751 39.382,13.481C40.462,13.001 41.552,12.551 42.652,12.151L43.002,5.571C42.942,5.351 42.872,5.181 42.792,5.061C42.722,4.971 42.652,4.901 42.572,4.871C42.382,4.781 42.122,4.731 41.812,4.701C41.452,4.671 41.042,4.671 40.622,4.681C40.422,4.691 40.232,4.701 40.032,4.721C39.862,4.741 39.712,4.771 39.592,4.801L39.562,4.811C39.502,4.831 39.442,4.851 39.392,4.871C39.352,4.891 39.322,4.911 39.292,4.931C39.272,4.951 39.252,4.971 39.242,4.991C39.212,5.031 39.182,5.071 39.162,5.121C39.122,5.201 39.082,5.311 39.042,5.431C39.002,5.551 38.972,5.681 38.932,5.811C38.912,7.031 38.822,8.231 38.662,9.411C38.492,10.631 38.262,11.821 37.962,13.001C37.852,13.441 37.732,13.881 37.612,14.311ZM24.942,47.651C24.932,47.831 24.912,48.021 24.872,48.201C24.822,48.411 24.762,48.621 24.672,48.811C23.842,51.121 23.272,53.401 22.932,55.641C22.582,57.901 22.462,60.091 22.522,62.241C22.582,64.451 22.842,66.621 23.232,68.761C23.632,70.911 24.162,73.021 24.802,75.101C24.832,75.191 24.852,75.301 24.882,75.421C25.422,75.971 25.992,76.401 26.582,76.701C27.182,77.011 27.812,77.171 28.452,77.171C29.382,77.171 30.302,76.821 31.162,76.181C32.112,75.471 33.002,74.411 33.762,73.091C34.612,71.621 35.302,69.851 35.772,67.861C36.232,65.931 36.482,63.811 36.482,61.571C36.482,59.331 36.232,57.211 35.772,55.281C35.302,53.291 34.612,51.521 33.762,50.051C33.002,48.731 32.112,47.671 31.162,46.961L31.122,46.931C30.272,46.311 29.382,45.971 28.462,45.971C27.822,45.971 27.202,46.131 26.602,46.441C26.012,46.711 25.462,47.121 24.942,47.651Z" style="fill-rule:nonzero;"/>
        </g>
        <g transform="matrix(-0.062135,3.573204,3.573204,0.062135,-263.037744,-272.615557)">
            <g transform="matrix(20,0,0,20,221.692942,31.421747)">
            </g>
            <text x="126.478px" y="31.422px" style="font-family:'Calibri-Bold', 'Calibri', sans-serif;font-weight:700;font-size:20px;fill:rgb(255,0,0);">A) Occipit<tspan x="206.908px 216.781px " y="31.422px 31.422px ">al</tspan></text>
        </g>
    </g>
    <g transform="matrix(0.998017,-0.000165,-0.000165,0.999986,0.39309,0.032607)">
        <path d="M242.19,180.9L183.6,176.04" style="fill:none;stroke:rgb(255,0,0);stroke-width:4px;stroke-linecap:round;stroke-linejoin:round;stroke-miterlimit:1.5;"/>
    </g>
    <path d="M242.073,180.89C207.675,196.688 171.521,205.455 133.02,204.84" style="fill:none;stroke:rgb(255,0,0);stroke-width:4px;stroke-linecap:round;stroke-linejoin:round;stroke-miterlimit:1.5;"/>
    <path d="M242.073,180.89C190.816,126.434 137.775,124.456 82.8,176.04" style="fill:none;stroke:rgb(255,0,0);stroke-width:4px;stroke-linecap:round;stroke-linejoin:round;stroke-miterlimit:1.5;"/>
    <path d="M132.914,291.24C153.84,284.715 197.113,211.997 242.073,199.494" style="fill:none;stroke:rgb(0,0,255);stroke-width:4px;stroke-linecap:round;stroke-linejoin:round;stroke-miterlimit:1.5;"/>
    <path d="M176.4,276.84C221.728,233.174 214.858,209.608 242.073,199.494" style="fill:none;stroke:rgb(0,0,255);stroke-width:4px;stroke-linecap:round;stroke-linejoin:round;stroke-miterlimit:1.5;"/>
    <g transform="matrix(1,0,0,1,-120.113639,199.931639)">
        <g transform="matrix(16,0,0,16,305.986296,100.997316)">
        </g>
        <text x="287.057px" y="100.997px" style="font-family:'Calibri-Bold', 'Calibri', sans-serif;font-weight:700;font-size:16px;">O2</text>
    </g>
    <g transform="matrix(1,0,0,1,-162.469889,214.334169)">
        <g transform="matrix(16,0,0,16,304.158171,100.997316)">
        </g>
        <text x="287.057px" y="100.997px" style="font-family:'Calibri-Bold', 'Calibri', sans-serif;font-weight:700;font-size:16px;">Oz</text>
    </g>
    <g transform="matrix(1,0,0,1,-206.466764,199.963823)">
        <g transform="matrix(16,0,0,16,305.986296,100.997316)">
        </g>
        <text x="287.057px" y="100.997px" style="font-family:'Calibri-Bold', 'Calibri', sans-serif;font-weight:700;font-size:16px;">O1</text>
    </g>
    <g transform="matrix(1,0,0,1,-165.900358,127.960942)">
        <g transform="matrix(16,0,0,16,310.400358,100.997316)">
        </g>
        <text x="287.057px" y="100.997px" style="font-family:'Calibri-Bold', 'Calibri', sans-serif;font-weight:700;font-size:16px;">CPz</text>
    </g>
    <g transform="matrix(1,0,0,1,-216.744889,99.122574)">
        <g transform="matrix(16,0,0,16,312.150358,100.997316)">
        </g>
        <text x="287.057px" y="100.997px" style="font-family:'Calibri-Bold', 'Calibri', sans-serif;font-weight:700;font-size:16px;">CP5</text>
    </g>
    <g transform="matrix(1,0,0,1,-116.069889,61.083934)">
        <g transform="matrix(16,0,0,16,312.150358,100.997316)">
        </g>
        <text x="287.057px" y="100.997px" style="font-family:'Calibri-Bold', 'Calibri', sans-serif;font-weight:700;font-size:16px;">CP6</text>
    </g>
    <g transform="matrix(1,0,0,1,5.342467,-53.044161)">
        <g transform="matrix(14,0,0,14,269.421545,247.682618)">
            <path d="M0.487,-0.469C0.5,-0.469 0.51,-0.466 0.515,-0.46C0.521,-0.454 0.523,-0.446 0.523,-0.435L0.523,-0.017C0.523,-0.013 0.522,-0.01 0.521,-0.008C0.519,-0.006 0.515,-0.004 0.511,-0.002C0.506,-0 0.5,0.001 0.492,0.002C0.484,0.003 0.474,0.003 0.462,0.003C0.45,0.003 0.44,0.003 0.432,0.002C0.424,0.001 0.418,-0 0.414,-0.002C0.409,-0.004 0.406,-0.006 0.404,-0.008C0.402,-0.01 0.401,-0.013 0.401,-0.017L0.401,-0.369L0.205,-0.369L0.205,-0.165C0.205,-0.141 0.209,-0.123 0.216,-0.111C0.224,-0.099 0.237,-0.093 0.256,-0.093C0.263,-0.093 0.269,-0.094 0.274,-0.095C0.279,-0.096 0.284,-0.097 0.288,-0.099C0.292,-0.1 0.295,-0.102 0.298,-0.103C0.301,-0.104 0.303,-0.104 0.306,-0.104C0.308,-0.104 0.309,-0.104 0.311,-0.103C0.313,-0.102 0.314,-0.099 0.315,-0.096C0.316,-0.093 0.317,-0.088 0.318,-0.082C0.319,-0.076 0.319,-0.069 0.319,-0.06C0.319,-0.045 0.319,-0.034 0.317,-0.027C0.315,-0.02 0.313,-0.014 0.31,-0.011C0.307,-0.008 0.303,-0.005 0.297,-0.002C0.291,0 0.284,0.002 0.277,0.004C0.269,0.006 0.261,0.007 0.252,0.008C0.243,0.009 0.234,0.01 0.225,0.01C0.2,0.01 0.179,0.007 0.161,0C0.143,-0.006 0.128,-0.015 0.117,-0.028C0.105,-0.041 0.096,-0.057 0.091,-0.077C0.085,-0.096 0.083,-0.119 0.083,-0.146L0.083,-0.369L0.03,-0.369C0.024,-0.369 0.019,-0.373 0.016,-0.381C0.013,-0.388 0.011,-0.401 0.011,-0.419C0.011,-0.428 0.012,-0.436 0.012,-0.443C0.013,-0.449 0.014,-0.455 0.016,-0.458C0.018,-0.462 0.02,-0.465 0.022,-0.466C0.025,-0.468 0.028,-0.469 0.031,-0.469L0.083,-0.469L0.083,-0.566C0.083,-0.569 0.083,-0.572 0.085,-0.575C0.087,-0.577 0.09,-0.58 0.095,-0.581C0.1,-0.583 0.106,-0.584 0.114,-0.585C0.122,-0.586 0.132,-0.586 0.144,-0.586C0.156,-0.586 0.166,-0.586 0.174,-0.585C0.182,-0.584 0.188,-0.583 0.192,-0.581C0.197,-0.58 0.2,-0.577 0.202,-0.575C0.204,-0.572 0.205,-0.569 0.205,-0.566L0.205,-0.469L0.487,-0.469ZM0.533,-0.6C0.533,-0.575 0.528,-0.558 0.518,-0.548C0.508,-0.539 0.489,-0.534 0.462,-0.534C0.434,-0.534 0.416,-0.539 0.406,-0.548C0.396,-0.557 0.392,-0.573 0.392,-0.597C0.392,-0.622 0.397,-0.639 0.406,-0.649C0.416,-0.658 0.435,-0.663 0.463,-0.663C0.49,-0.663 0.509,-0.658 0.519,-0.649C0.528,-0.64 0.533,-0.623 0.533,-0.6ZM0.339,-0.469" style="fill-rule:nonzero;"/>
        </g>
        <g transform="matrix(14,0,0,14,269.421545,247.682618)">
        </g>
        <g transform="matrix(14,0,0,14,274.219043,247.682618)">
        </g>
        <g transform="matrix(14,0,0,14,323.958654,247.682618)">
        </g>
        <text x="262.804px" y="247.683px" style="font-family:'Calibri-Bold', 'Calibri', sans-serif;font-weight:700;font-size:14px;">S<tspan x="277.618px " y="247.683px ">m</tspan>ula<tspan x="306.739px 311.456px 318.982px " y="247.683px 247.683px 247.683px ">tor</tspan></text>
    </g>
    <g transform="matrix(1,0,0,1,-8.658367,-6.770145)">
        <g transform="matrix(14,0,0,14,311.119167,227.6828)">
            <path d="M0.487,-0.469C0.5,-0.469 0.51,-0.466 0.515,-0.46C0.521,-0.454 0.523,-0.446 0.523,-0.435L0.523,-0.017C0.523,-0.013 0.522,-0.01 0.521,-0.008C0.519,-0.006 0.515,-0.004 0.511,-0.002C0.506,-0 0.5,0.001 0.492,0.002C0.484,0.003 0.474,0.003 0.462,0.003C0.45,0.003 0.44,0.003 0.432,0.002C0.424,0.001 0.418,-0 0.414,-0.002C0.409,-0.004 0.406,-0.006 0.404,-0.008C0.402,-0.01 0.401,-0.013 0.401,-0.017L0.401,-0.369L0.205,-0.369L0.205,-0.165C0.205,-0.141 0.209,-0.123 0.216,-0.111C0.224,-0.099 0.237,-0.093 0.256,-0.093C0.263,-0.093 0.269,-0.094 0.274,-0.095C0.279,-0.096 0.284,-0.097 0.288,-0.099C0.292,-0.1 0.295,-0.102 0.298,-0.103C0.301,-0.104 0.303,-0.104 0.306,-0.104C0.308,-0.104 0.309,-0.104 0.311,-0.103C0.313,-0.102 0.314,-0.099 0.315,-0.096C0.316,-0.093 0.317,-0.088 0.318,-0.082C0.319,-0.076 0.319,-0.069 0.319,-0.06C0.319,-0.045 0.319,-0.034 0.317,-0.027C0.315,-0.02 0.313,-0.014 0.31,-0.011C0.307,-0.008 0.303,-0.005 0.297,-0.002C0.291,0 0.284,0.002 0.277,0.004C0.269,0.006 0.261,0.007 0.252,0.008C0.243,0.009 0.234,0.01 0.225,0.01C0.2,0.01 0.179,0.007 0.161,0C0.143,-0.006 0.128,-0.015 0.117,-0.028C0.105,-0.041 0.096,-0.057 0.091,-0.077C0.085,-0.096 0.083,-0.119 0.083,-0.146L0.083,-0.369L0.03,-0.369C0.024,-0.369 0.019,-0.373 0.016,-0.381C0.013,-0.388 0.011,-0.401 0.011,-0.419C0.011,-0.428 0.012,-0.436 0.012,-0.443C0.013,-0.449 0.014,-0.455 0.016,-0.458C0.018,-0.462 0.02,-0.465 0.022,-0.466C0.025,-0.468 0.028,-0.469 0.031,-0.469L0.083,-0.469L0.083,-0.566C0.083,-0.569 0.083,-0.572 0.085,-0.575C0.087,-0.577 0.09,-0.58 0.095,-0.581C0.1,-0.583 0.106,-0.584 0.114,-0.585C0.122,-0.586 0.132,-0.586 0.144,-0.586C0.156,-0.586 0.166,-0.586 0.174,-0.585C0.182,-0.584 0.188,-0.583 0.192,-0.581C0.197,-0.58 0.2,-0.577 0.202,-0.575C0.204,-0.572 0.205,-0.569 0.205,-0.566L0.205,-0.469L0.487,-0.469ZM0.533,-0.6C0.533,-0.575 0.528,-0.558 0.518,-0.548C0.508,-0.539 0.489,-0.534 0.462,-0.534C0.434,-0.534 0.416,-0.539 0.406,-0.548C0.396,-0.557 0.392,-0.573 0.392,-0.597C0.392,-0.622 0.397,-0.639 0.406,-0.649C0.416,-0.658 0.435,-0.663 0.463,-0.663C0.49,-0.663 0.509,-0.658 0.519,-0.649C0.528,-0.64 0.533,-0.623 0.533,-0.6ZM0.339,-0.469" style="fill:rgb(0,0,255);fill-rule:nonzero;"/>
        </g>
        <g transform="matrix(14,0,0,14,311.119167,227.6828)">
        </g>
        <g transform="matrix(14,0,0,14,315.916665,227.6828)">
        </g>
        <g transform="matrix(14,0,0,14,337.218776,227.6828)">
        </g>
        <text x="277.309px" y="227.683px" style="font-family:'Calibri-Bold', 'Calibri', sans-serif;font-weight:700;font-size:14px;fill:rgb(0,0,255);">(Neg<tspan x="304.338px 319.315px 325.81px 332.857px " y="227.683px 227.683px 227.683px 227.683px ">ave)</tspan></text>
    </g>
</svg>
